<svg xmlns="http://www.w3.org/2000/svg" viewBox="0 0 100 100" fill="none">
  <defs>
    <linearGradient id="goldLanternGrad" x1="0%" y1="0%" x2="100%" y2="100%">
      <stop offset="0%" stopColor="#fde047" />
      <stop offset="50%" stopColor="#f59e0b" />
      <stop offset="100%" stopColor="#b45309" />
    </linearGradient>
    <filter id="goldenLanternGlow" x="-30%" y="-30%" width="160%" height="160%">
      <feGaussianBlur stdDeviation="6" result="blur" />
      <feComposite in="SourceGraphic" in2="blur" operator="over" />
    </filter>
  </defs>
  <path d="M50 8V22" stroke="#b45309" strokeWidth="4" strokeLinecap="round" />
  <path d="M30 22H70L62 34H38L30 22Z" fill="url(#goldLanternGrad)" stroke="#b45309" strokeWidth="2.5" />
  <rect x="32" y="34" width="36" height="44" rx="6" fill="#fef9c3" stroke="#b45309" strokeWidth="3.5" />
  <circle cx="50" cy="56" r="16" fill="#fbbf24" fillOpacity="0.6" filter="url(#goldenLanternGlow)" />
  <path d="M50 44C50 44 42 54 42 58C42 62.4 45.6 66 50 66C54.4 66 58 62.4 58 58C58 54 50 44 50 44Z" fill="#ea580c" />
  <circle cx="50" cy="58" r="4" fill="#ffffff" />
  <rect x="26" y="78" width="48" height="10" rx="4" fill="url(#goldLanternGrad)" stroke="#b45309" strokeWidth="2.5" />
</svg>
